# xmcd
#
# Track frame offsets: 
#        150
#        12717
#        22847
#        38432
#        48473
#        67710
#        85690
#        101804
#        115649
#        128040
#        146909
#        160753
#
# Disc length: 2410 seconds
#
# Revision: 0
# Processed by: cddbd v1.5.2PL0 Copyright (c) Steve Scherf et al.
# Submitted via: ExactAudioCopy v0.99pb4
#
DISCID=8f09680c
DTITLE=Keith Cooper - The Hymns
DYEAR=2008
DGENRE=Blues
TTITLE0=Joyful, Joyful We Adore Thee
TTITLE1=Fairest Lord Jesus
TTITLE2=Holy, Holy, Holy
TTITLE3=Come Though Fount
TTITLE4=The Old Rugged Cross
TTITLE5=O The Deep, Deep Love of Jesus
TTITLE6=It Is Well with My Soul
TTITLE7=Sweet Hour of Prayer
TTITLE8=Stand Up, Stand Up For Jesus
TTITLE9=Turn Your Eyes Upon Jesus
TTITLE10=I Surrender All
TTITLE11=Amazing Grace
EXTD=
EXTT0=
EXTT1=
EXTT2=
EXTT3=
EXTT4=
EXTT5=
EXTT6=
EXTT7=
EXTT8=
EXTT9=
EXTT10=
EXTT11=
PLAYORDER=
